<mxfile host="app.diagrams.net" modified="2022-06-01T17:47:08.691Z" agent="5.0 (Windows NT 10.0; Win64; x64) AppleWebKit/537.36 (KHTML, like Gecko) Chrome/102.0.5005.61 Safari/537.36" etag="dC6IGRlEe_PEiSRloV4F" version="18.2.0" type="github">
  <diagram id="kkNiDgmsJntbc2DNG1Sr" name="Page-1">
    <mxGraphModel dx="1021" dy="525" grid="1" gridSize="10" guides="1" tooltips="1" connect="1" arrows="1" fold="1" page="1" pageScale="1" pageWidth="827" pageHeight="1169" background="#283618" math="0" shadow="0">
      <root>
        <mxCell id="0" />
        <mxCell id="1" parent="0" />
        <mxCell id="pIc9fbUk_0BNBqSaxjgj-10" style="edgeStyle=orthogonalEdgeStyle;rounded=0;orthogonalLoop=1;jettySize=auto;html=1;exitX=1;exitY=0.5;exitDx=0;exitDy=0;entryX=0;entryY=0.5;entryDx=0;entryDy=0;labelBackgroundColor=#283618;strokeColor=#DDA15E;fontColor=#FEFAE0;" edge="1" parent="1" source="pIc9fbUk_0BNBqSaxjgj-2" target="pIc9fbUk_0BNBqSaxjgj-3">
          <mxGeometry relative="1" as="geometry" />
        </mxCell>
        <mxCell id="pIc9fbUk_0BNBqSaxjgj-15" value="" style="edgeStyle=orthogonalEdgeStyle;rounded=0;orthogonalLoop=1;jettySize=auto;html=1;labelBackgroundColor=#283618;strokeColor=#DDA15E;fontColor=#FEFAE0;" edge="1" parent="1" source="pIc9fbUk_0BNBqSaxjgj-2" target="pIc9fbUk_0BNBqSaxjgj-3">
          <mxGeometry relative="1" as="geometry" />
        </mxCell>
        <mxCell id="pIc9fbUk_0BNBqSaxjgj-2" value="Artista" style="rounded=0;whiteSpace=wrap;html=1;fillColor=#BC6C25;fontColor=#FEFAE0;strokeColor=#DDA15E;" vertex="1" parent="1">
          <mxGeometry x="80" y="60" width="120" height="60" as="geometry" />
        </mxCell>
        <mxCell id="pIc9fbUk_0BNBqSaxjgj-11" style="edgeStyle=orthogonalEdgeStyle;rounded=0;orthogonalLoop=1;jettySize=auto;html=1;exitX=1;exitY=0.5;exitDx=0;exitDy=0;labelBackgroundColor=#283618;strokeColor=#DDA15E;fontColor=#FEFAE0;" edge="1" parent="1" source="pIc9fbUk_0BNBqSaxjgj-3" target="pIc9fbUk_0BNBqSaxjgj-4">
          <mxGeometry relative="1" as="geometry" />
        </mxCell>
        <mxCell id="pIc9fbUk_0BNBqSaxjgj-3" value="Produz" style="rhombus;whiteSpace=wrap;html=1;fillColor=#BC6C25;strokeColor=#DDA15E;fontColor=#FEFAE0;" vertex="1" parent="1">
          <mxGeometry x="270" y="10" width="140" height="90" as="geometry" />
        </mxCell>
        <mxCell id="pIc9fbUk_0BNBqSaxjgj-4" value="Album" style="rounded=0;whiteSpace=wrap;html=1;fillColor=#BC6C25;fontColor=#FEFAE0;strokeColor=#DDA15E;" vertex="1" parent="1">
          <mxGeometry x="480" y="60" width="120" height="60" as="geometry" />
        </mxCell>
        <mxCell id="pIc9fbUk_0BNBqSaxjgj-16" style="edgeStyle=orthogonalEdgeStyle;curved=0;rounded=1;sketch=0;orthogonalLoop=1;jettySize=auto;html=1;exitX=1;exitY=0.5;exitDx=0;exitDy=0;entryX=0;entryY=0.5;entryDx=0;entryDy=0;fontColor=#FEFAE0;strokeColor=#DDA15E;fillColor=#BC6C25;" edge="1" parent="1" source="pIc9fbUk_0BNBqSaxjgj-12" target="pIc9fbUk_0BNBqSaxjgj-13">
          <mxGeometry relative="1" as="geometry" />
        </mxCell>
        <mxCell id="pIc9fbUk_0BNBqSaxjgj-12" value="Estilo Musical" style="rounded=0;whiteSpace=wrap;html=1;fillColor=#BC6C25;strokeColor=#DDA15E;fontColor=#FEFAE0;" vertex="1" parent="1">
          <mxGeometry x="80" y="200" width="120" height="60" as="geometry" />
        </mxCell>
        <mxCell id="pIc9fbUk_0BNBqSaxjgj-17" style="edgeStyle=orthogonalEdgeStyle;curved=0;rounded=1;sketch=0;orthogonalLoop=1;jettySize=auto;html=1;exitX=1;exitY=0.5;exitDx=0;exitDy=0;fontColor=#FEFAE0;strokeColor=#DDA15E;fillColor=#BC6C25;" edge="1" parent="1" source="pIc9fbUk_0BNBqSaxjgj-13">
          <mxGeometry relative="1" as="geometry">
            <mxPoint x="470" y="240" as="targetPoint" />
          </mxGeometry>
        </mxCell>
        <mxCell id="pIc9fbUk_0BNBqSaxjgj-13" value="Possui" style="rhombus;whiteSpace=wrap;html=1;fillColor=#BC6C25;strokeColor=#DDA15E;fontColor=#FEFAE0;" vertex="1" parent="1">
          <mxGeometry x="280" y="140" width="120" height="110" as="geometry" />
        </mxCell>
        <mxCell id="pIc9fbUk_0BNBqSaxjgj-14" value="Album" style="rounded=0;whiteSpace=wrap;html=1;fillColor=#BC6C25;strokeColor=#DDA15E;fontColor=#FEFAE0;" vertex="1" parent="1">
          <mxGeometry x="480" y="200" width="120" height="60" as="geometry" />
        </mxCell>
        <mxCell id="pIc9fbUk_0BNBqSaxjgj-21" style="edgeStyle=orthogonalEdgeStyle;curved=0;rounded=1;sketch=0;orthogonalLoop=1;jettySize=auto;html=1;exitX=1;exitY=0.5;exitDx=0;exitDy=0;entryX=0;entryY=0.5;entryDx=0;entryDy=0;fontColor=#FEFAE0;strokeColor=#DDA15E;fillColor=#BC6C25;" edge="1" parent="1" source="pIc9fbUk_0BNBqSaxjgj-18" target="pIc9fbUk_0BNBqSaxjgj-20">
          <mxGeometry relative="1" as="geometry" />
        </mxCell>
        <mxCell id="pIc9fbUk_0BNBqSaxjgj-18" value="Album" style="rounded=0;whiteSpace=wrap;html=1;sketch=0;fontColor=#FEFAE0;strokeColor=#DDA15E;fillColor=#BC6C25;" vertex="1" parent="1">
          <mxGeometry x="80" y="360" width="120" height="60" as="geometry" />
        </mxCell>
        <mxCell id="pIc9fbUk_0BNBqSaxjgj-19" value="Cqnções" style="rounded=0;whiteSpace=wrap;html=1;sketch=0;fontColor=#FEFAE0;strokeColor=#DDA15E;fillColor=#BC6C25;" vertex="1" parent="1">
          <mxGeometry x="480" y="360" width="120" height="60" as="geometry" />
        </mxCell>
        <mxCell id="pIc9fbUk_0BNBqSaxjgj-22" style="edgeStyle=orthogonalEdgeStyle;curved=0;rounded=1;sketch=0;orthogonalLoop=1;jettySize=auto;html=1;exitX=1;exitY=0.5;exitDx=0;exitDy=0;entryX=0;entryY=0.5;entryDx=0;entryDy=0;fontColor=#FEFAE0;strokeColor=#DDA15E;fillColor=#BC6C25;" edge="1" parent="1" source="pIc9fbUk_0BNBqSaxjgj-20" target="pIc9fbUk_0BNBqSaxjgj-19">
          <mxGeometry relative="1" as="geometry" />
        </mxCell>
        <mxCell id="pIc9fbUk_0BNBqSaxjgj-20" value="Possui" style="rhombus;whiteSpace=wrap;html=1;rounded=0;sketch=0;fontColor=#FEFAE0;strokeColor=#DDA15E;fillColor=#BC6C25;" vertex="1" parent="1">
          <mxGeometry x="270" y="300" width="140" height="120" as="geometry" />
        </mxCell>
      </root>
    </mxGraphModel>
  </diagram>
</mxfile>
